<svg width="40" height="40" viewBox="0 0 40 40" fill="none" xmlns="http://www.w3.org/2000/svg">
<path d="M14.3508 35.2956H3.21773V30.5911H14.3261V35.2956H14.3508ZM16.5921 28.2266H1.00098V40H3.21773V37.6355H16.5429V28.2266H16.5921ZM3.21773 7.06897L7.67586 2.36453V18.8424H3.21773V7.06897ZM1.00098 21.1823H9.86797V0H6.56748L1.00098 5.8867V21.1823ZM14.3508 2.36453H18.8089V18.8424H14.3508V2.36453ZM12.134 21.1823H21.001V0H12.134V21.1823ZM36.5429 21.1823H38.7596V0H35.4099V0.0246305L32.0601 3.5468V0H28.7104L23.1931 5.8867V21.1823H25.4099V7.06897L29.868 2.36453V21.1823H32.0847V7.06897L36.5429 2.36453V21.1823ZM1.00098 25.8867H38.7842V23.5222H1.00098V25.8867ZM29.8926 30.5911H36.5429V35.2956H29.8926V30.5911ZM27.6759 35.2956H21.001V30.5911H27.6759V35.2956ZM29.8926 37.6355H38.7842V28.2266H18.8089V37.6355H27.6759V40H29.8926V37.6355Z" fill="#384249"/>
</svg>
