<svg width="40" height="41" viewBox="0 0 40 41" fill="none" xmlns="http://www.w3.org/2000/svg">
<path fill-rule="evenodd" clip-rule="evenodd" d="M5.10614 18.9334H12.4719C12.4526 17.4282 12.5404 16.8572 12.993 16.0393H20.3352C20.319 16.0579 13.6302 24.3305 11.9934 26.117C10.3539 27.9062 9.80879 28.9828 8.63507 28.9407C7.45747 28.8985 6.62882 27.618 6.62882 25.6149H0C0.174473 26.7882 0.992679 29.343 3.91462 29.8421C6.83308 30.3403 9.42658 30.0587 9.65792 30.1984C9.88926 30.338 11.321 30.5268 12.3307 30.4204C13.3408 30.3136 15.3873 30.2835 17.2144 28.6122C18.1773 29.3709 19.4253 30.6034 23.184 30.6034C26.9377 30.6034 30.744 28.601 31.8694 25.8207C32.9948 23.0403 31.2264 20.5896 28.7943 19.9443C26.3613 19.2986 24.7887 19.5961 24.7887 19.5961L27.7505 16.0227H36.5744L40 10.792H17.9019C15.8183 10.7939 13.2948 11.9862 12.034 13.9433C8.49657 14.4671 6.23654 16.0076 5.10614 18.9334ZM25.9613 12.2953H36.7194L35.6525 13.9348H24.6003L25.9613 12.2953ZM14.5749 13.9399C15.1265 13.3251 16.5444 12.2957 17.944 12.2957H23.4448L22.0718 13.9399H14.5749ZM10.7829 16.0533C10.5036 16.837 10.4216 17.1813 10.3628 18.1156H7.7627C8.0865 17.5187 8.85364 16.5001 10.7829 16.0533ZM17.8052 22.1447L22.8842 16.0378H24.8847L20.0288 21.8596C18.4319 21.8674 17.8052 22.1447 17.8052 22.1447ZM6.50425 29.1295C5.69765 29.121 5.28294 29.066 4.38697 28.7008C3.4914 28.3356 2.52464 27.3677 2.30916 26.6304H4.66706C4.72277 27.0296 4.90072 27.435 5.28797 27.996C5.67676 28.5596 6.06633 28.7674 6.50425 29.1295ZM11.3315 29.3086C13.0797 28.1643 14.6917 26.1124 15.5289 25.351C15.5014 26.0481 15.6689 26.5433 15.8314 26.9128C14.7401 27.9519 13.0449 29.5217 11.3315 29.3086ZM18.2651 27.4493L21.5372 23.5111C21.5372 23.5111 22.2877 23.8512 22.6745 24.3467C23.0626 24.8435 23.1492 25.6118 23.1492 25.6118H25.8448C25.7241 25.0175 25.3079 24.105 24.656 23.4953C24.0019 22.8836 23.3662 22.4585 22.562 22.2774L23.5991 21.0294C23.5991 21.0294 25.7458 20.8863 26.7656 21.4004C27.8507 21.9474 29.2898 23.1537 28.8596 25.2249C28.4298 27.2927 25.5346 28.6184 24.0104 28.8006C22.49 28.9825 21.5097 28.9975 20.3356 28.567C19.1592 28.1364 18.2651 27.4493 18.2651 27.4493ZM18.9595 23.163L16.9618 25.5545C16.9042 25.6222 16.5556 24.6729 17.3123 23.7429C18.0713 22.8105 18.9595 23.163 18.9595 23.163Z" fill="#D6B36A"/>
</svg>
