<svg width="41" height="41" viewBox="0 0 41 41" fill="none" xmlns="http://www.w3.org/2000/svg">
<path d="M20.9999 39.4999C17.0999 39.4999 13.3999 38.3999 10.1999 36.1999C6.89988 34.0999 4.39988 30.9999 2.99988 27.4999C1.49988 23.8999 1.09988 19.9999 1.89988 16.1999C2.69988 12.3999 4.49988 8.89988 7.19988 6.19988C9.89988 3.49988 13.3999 1.59988 17.1999 0.899877C20.9999 0.0998768 24.8999 0.499877 28.4999 1.99988C32.0999 3.49988 35.0999 5.99988 37.2999 9.19988C39.3999 12.3999 40.5999 16.1999 40.5999 19.9999C40.5999 25.1999 38.4999 30.0999 34.8999 33.7999C31.0999 37.4999 26.1999 39.4999 20.9999 39.4999Z" fill="white"/>
<path d="M20.9999 1C24.7999 1 28.3999 2.1 31.5999 4.2C34.6999 6.3 37.1999 9.3 38.5999 12.7C39.9999 16.2 40.3999 20 39.6999 23.7C38.9999 27.4 37.1999 30.8 34.4999 33.5C30.8999 37.1 26.0999 39.1 20.9999 39.1C15.8999 39.1 11.0999 37.1 7.49988 33.5C3.89988 29.9 1.89988 25.1 1.89988 20C1.89988 14.9 3.89988 10.1 7.49988 6.5C9.29988 4.7 11.3999 3.3 13.6999 2.4C15.9999 1.4 18.4999 1 20.9999 1ZM20.9999 0C16.9999 0 13.1999 1.2 9.89988 3.4C6.59988 5.6 3.99988 8.7 2.49988 12.4C0.999877 16 0.599877 20 1.39988 23.9C2.19988 27.8 4.09988 31.3 6.89988 34.1C9.69988 36.9 13.2999 38.8 17.0999 39.6C20.8999 40.4 24.9999 40 28.6999 38.5C32.3999 37 35.4999 34.4 37.6999 31.1C39.7999 27.8 40.9999 24 40.9999 20C40.9999 14.7 38.8999 9.6 35.0999 5.9C31.3999 2.1 26.2999 0 20.9999 0Z" fill="#FF0500"/>
<path d="M10.2002 13.1004V25.6004L18.7002 17.1004V13.1004L14.5002 8.90039L10.2002 13.1004ZM26.2002 8.90039H17.0002L21.2002 13.1004V17.1004L25.8002 21.8004L30.4002 17.1004V13.1004L26.2002 8.90039Z" fill="#FF0500"/>
<path d="M24.8002 22.6998L20.0002 17.8998L7.7002 30.0998H17.3002L24.8002 22.6998ZM31.6002 17.7998L19.2002 30.0998H31.5002V17.7998H31.6002Z" fill="#FF0500"/>
<path d="M20.0001 19.2998L10.1001 29.0998H17.0001L23.4001 22.6998L20.0001 19.2998Z" fill="url(#paint0_linear_63_1085)"/>
<path d="M20.0002 19.3004V17.9004L7.7002 30.1004L10.1002 29.1004L20.0002 19.3004Z" fill="url(#paint1_linear_63_1085)"/>
<path d="M30.6002 20.1998L31.6002 17.7998L19.2002 30.0998L21.6002 29.0998C21.7002 29.0998 30.6002 20.1998 30.6002 20.1998Z" fill="url(#paint2_linear_63_1085)"/>
<path d="M30.6002 29.1002V20.2002L21.7002 29.1002H30.6002Z" fill="url(#paint3_linear_63_1085)"/>
<defs>
<linearGradient id="paint0_linear_63_1085" x1="21.6601" y1="21.0198" x2="11.8501" y2="30.8298" gradientUnits="userSpaceOnUse">
<stop stop-color="#F9F6F1"/>
<stop offset="1" stop-color="#C8B67F"/>
</linearGradient>
<linearGradient id="paint1_linear_63_1085" x1="20.3076" y1="18.2678" x2="8.10759" y2="30.4778" gradientUnits="userSpaceOnUse">
<stop stop-color="#F7F4EC"/>
<stop offset="1" stop-color="#CAB880"/>
</linearGradient>
<linearGradient id="paint2_linear_63_1085" x1="2653.13" y1="2651.81" x2="2501.34" y2="2500.02" gradientUnits="userSpaceOnUse">
<stop stop-color="#F7F4EC"/>
<stop offset="1" stop-color="#CAB880"/>
</linearGradient>
<linearGradient id="paint3_linear_63_1085" x1="1903.77" y1="1904.49" x2="1826.16" y2="1826.79" gradientUnits="userSpaceOnUse">
<stop stop-color="#F9F6F1"/>
<stop offset="1" stop-color="#C8B67F"/>
</linearGradient>
</defs>
</svg>
