<svg width="40" height="40" viewBox="0 0 40 40" fill="none" xmlns="http://www.w3.org/2000/svg">
<path d="M11.2012 20.0001C11.2012 18.2001 11.7012 16.5001 12.7012 15.1001C13.7012 13.6001 15.1012 12.5001 16.7012 11.8001C18.3012 11.1001 20.1012 11.0001 21.8012 11.3001C23.5012 11.6001 25.1012 12.5001 26.4012 13.7001C27.7012 14.9001 28.5012 16.5001 28.8012 18.3001C29.1012 20.0001 29.0012 21.8001 28.3012 23.4001C27.6012 25.0001 26.5012 26.4001 25.0012 27.4001C23.5012 28.4001 21.8012 28.9001 20.1012 28.9001C17.7012 28.9001 15.5012 28.0001 13.8012 26.3001C12.1012 24.6001 11.2012 22.4001 11.2012 20.0001Z" fill="#4FAE2E"/>
<path d="M26.2012 8.8002C26.2012 7.8002 26.5012 6.8002 27.1012 6.0002C27.7012 5.2002 28.5012 4.5002 29.4012 4.1002C30.3012 3.7002 31.4012 3.6002 32.3012 3.8002C33.3012 4.0002 34.2012 4.5002 34.9012 5.2002C35.6012 5.9002 36.1012 6.8002 36.3012 7.8002C36.5012 8.8002 36.4012 9.8002 36.0012 10.7002C35.6012 11.6002 35.0012 12.4002 34.1012 13.0002C33.3012 13.6002 32.3012 13.9002 31.3012 13.9002C29.9012 13.9002 28.7012 13.4002 27.7012 12.4002C26.8012 11.4002 26.2012 10.1002 26.2012 8.8002Z" fill="#016438"/>
<path d="M0.000976562 20C0.000976562 14.7 2.10098 9.6 5.90098 5.9C9.60098 2.1 14.701 0 20.001 0V7.3C17.501 7.3 15.001 8 12.901 9.4C10.801 10.8 9.20098 12.8 8.20098 15.1C7.20098 17.4 7.00098 20 7.50098 22.5C8.00098 25 9.20098 27.3 11.001 29C12.801 30.8 15.101 32 17.601 32.5C20.101 33 22.701 32.7 25.001 31.7C27.301 30.7 29.301 29.1 30.701 27C32.101 24.9 32.801 22.4 32.801 19.9H40.001C40.001 22.5 39.501 25.1 38.501 27.6C37.501 30 36.001 32.2 34.201 34.1C32.301 36 30.101 37.4 27.701 38.4C25.301 39.4 22.701 40 20.001 40C17.401 40 14.801 39.5 12.301 38.5C9.90098 37.5 7.70098 36 5.80098 34.2C3.90098 32.3 2.50098 30.1 1.50098 27.7C0.500977 25.2 0.000976562 22.6 0.000976562 20Z" fill="#016438"/>
</svg>
