<svg width="40" height="41" viewBox="0 0 40 41" fill="none" xmlns="http://www.w3.org/2000/svg">
<path d="M33.6002 10.6997C34.1002 7.59973 33.6002 5.49973 31.9002 3.59973C30.0002 1.49973 26.7002 0.599732 22.4002 0.599732H10.0002C9.10021 0.499732 8.40021 1.09973 8.20021 1.99973L3.10021 34.7997C3.00021 35.4997 3.50021 36.0997 4.10021 36.0997H11.8002L11.3002 39.4997C11.2002 40.0997 11.6002 40.5997 12.2002 40.5997H18.7002C19.5002 40.5997 20.1002 39.9997 20.2002 39.2997L20.3002 38.9997L21.5002 31.2997L21.6002 30.8997C21.7002 30.0997 22.4002 29.5997 23.1002 29.5997H24.1002C30.4002 29.5997 35.3002 27.0997 36.7002 19.6997C37.3002 16.5997 37.0002 14.0997 35.4002 12.1997C34.9002 11.4997 34.3002 10.9997 33.6002 10.6997Z" fill="#009CDE"/>
<path d="M33.6002 10.6997C34.1002 7.59973 33.6002 5.49973 31.9002 3.59973C30.0002 1.49973 26.7002 0.599732 22.4002 0.599732H10.0002C9.10021 0.499732 8.40021 1.09973 8.20021 1.99973L3.10021 34.7997C3.00021 35.4997 3.50021 36.0997 4.10021 36.0997H11.8002L13.7002 23.8997L13.6002 24.2997C13.7002 23.3997 14.5002 22.7997 15.4002 22.7997H19.0002C26.2002 22.7997 31.8002 19.8997 33.4002 11.4997C33.5002 11.0997 33.6002 10.8997 33.6002 10.6997Z" fill="#012169"/>
<path d="M15.8002 10.7C15.9002 10.2 16.2002 9.8 16.7002 9.5C16.9002 9.4 17.1002 9.3 17.4002 9.3H27.1002C28.3002 9.3 29.3002 9.4 30.3002 9.5C30.6002 9.5 30.9002 9.6 31.1002 9.7C31.4002 9.8 31.6002 9.8 31.9002 9.9C32.0002 9.9 32.1002 10 32.3002 10C32.8002 10.2 33.2002 10.3 33.6002 10.6C34.1002 7.5 33.6002 5.4 31.9002 3.5C30.0002 1.4 26.7002 0.5 22.4002 0.5H10.0002C9.10021 0.5 8.40021 1.1 8.20021 2L3.10021 34.8C3.00021 35.5 3.50021 36.1 4.10021 36.1H11.8002L13.7002 23.9C13.7002 23.8 15.8002 10.7 15.8002 10.7Z" fill="#003087"/>
</svg>
