<svg width="40" height="41" viewBox="0 0 40 41" fill="none" xmlns="http://www.w3.org/2000/svg">
<path fill-rule="evenodd" clip-rule="evenodd" d="M27.3612 32.9626C31.1043 33.7806 34.8596 34.7476 38.9186 39.8285C39.2792 40.2794 38.7286 40.7313 38.3149 40.367C34.1842 36.7403 30.4522 35.5711 27.0127 35.5711C23.1839 35.5711 20.5754 36.0779 17.9464 36.0779C8.03507 36.0779 0 28.1127 0 18.288C0 8.4652 8.03507 0.5 17.9464 0.5C27.8586 0.5 35.8928 8.46427 35.8928 18.288C35.8975 21.507 35.0188 24.6655 33.3523 27.4196C33.2992 27.5062 33.166 27.4755 33.1529 27.3758C32.5371 23.0047 29.842 20.5956 25.9209 19.8932C25.5809 19.8317 25.5175 19.6239 25.9675 19.5857C27.1637 19.4833 28.8685 19.501 29.7349 19.6556C29.7871 19.2075 29.8094 18.7501 29.8094 18.288C29.8094 11.7947 24.4983 6.52933 17.9464 6.52933C11.3944 6.52933 6.08336 11.7938 6.08336 18.288C6.08336 24.7831 11.3944 30.0476 17.9464 30.0476C18.1327 30.0476 18.319 30.0495 18.5035 30.0411C18.3216 28.9916 18.247 27.9262 18.2808 26.8616C18.3097 26.1442 18.4569 26.0455 18.7839 26.6035C20.4245 29.4076 22.7805 31.963 27.3602 32.9626H27.3612ZM27.0565 28.5981C27.4944 28.5981 27.9537 28.7807 28.3487 29.1123C29.147 29.7812 29.3902 30.5768 28.9672 31.1385C28.7325 31.446 28.3524 31.6155 27.8959 31.6155C27.4487 31.6155 26.9922 31.4506 26.6755 31.1777C25.9489 30.5479 25.7355 29.5287 26.2097 28.9493C26.3951 28.7229 26.696 28.5981 27.0565 28.5981ZM31.0354 25.6877C31.7015 25.9374 31.9633 26.9473 32.0322 27.4131C32.1496 28.1928 31.9018 28.5151 31.6521 28.5151C31.3801 28.5151 31.0373 28.1993 30.6348 27.5761C30.237 26.9612 30.0917 26.2532 30.2883 25.8973C30.4187 25.6616 30.6916 25.5582 31.0354 25.6877Z" fill="#FF8C00"/>
</svg>
