<svg width="40" height="40" viewBox="0 0 40 40" fill="none" xmlns="http://www.w3.org/2000/svg">
<path d="M40.001 27.0066L39.689 24.5397C39.3202 20.3941 37.802 16.4349 35.304 13.106C33.1218 10.3944 30.2498 8.32228 26.9882 7.10565V0L24.5692 0.264035C20.4106 0.634202 16.4397 2.16276 13.1069 4.67756C10.3967 6.85844 8.32067 9.72658 7.09756 12.9843H0.000976562L0.293486 15.4512C0.667535 19.6033 2.20386 23.5651 4.72513 26.885C6.90471 29.6004 9.77803 31.6777 13.0409 32.8944V40L15.4975 39.7075C19.6418 39.336 23.601 37.8178 26.9312 35.3224C29.6467 33.1429 31.724 30.2695 32.9406 27.0066H40.001ZM24.1641 31.855C22.1696 33.3745 19.8567 34.4216 17.3988 34.9173V20.2983H12.9956V28.0757C11.1112 27.1412 9.45317 25.8055 8.13817 24.1631C6.62515 22.166 5.58195 19.8531 5.08624 17.3978H19.713V12.9843H11.9266C12.861 11.1024 14.1967 9.44701 15.8392 8.13719C17.8311 6.62158 20.1414 5.57839 22.5954 5.08526V19.8932H27.0089V11.9165C28.8908 12.8523 30.5449 14.1867 31.856 15.8292C33.3729 17.8237 34.4174 20.1378 34.9079 22.5944H20.421V27.0079H28.0754C27.1409 28.8885 25.8052 30.5439 24.1641 31.855Z" fill="#00863E"/>
</svg>
