<svg width="40" height="41" viewBox="0 0 40 41" fill="none" xmlns="http://www.w3.org/2000/svg">
<path d="M0 1.8C0 1.6 0 1.5 0.1 1.3C0.2 1.1 0.3 1 0.4 0.9C0.5 0.8 0.7 0.7 0.8 0.6C0.9 0.5 1.1 0.5 1.2 0.5H38.7C39 0.5 39.4 0.6 39.6 0.9C39.8 1.2 40 1.4 40 1.8V39.2C40 39.4 40 39.5 39.9 39.7C39.8 39.9 39.7 40 39.6 40.1C39.5 40.2 39.3 40.3 39.2 40.4C39.1 40.5 38.9 40.5 38.7 40.5H1.2C1 40.5 0.9 40.5 0.7 40.4C0.5 40.3 0.4 40.2 0.3 40.1C0.2 40 0.1 39.8 0 39.7V39.2V1.8H0Z" fill="#003870"/>
<path d="M33.6 20.6C34.1 20.6 34.6 20.4 35 20.2C35.4 19.9 35.7 19.5 35.9 19.1C36.1 18.6 36.1 18.1 36 17.6C35.9 17.1 35.7 16.6 35.3 16.3C34.9 15.9 34.5 15.7 34 15.6C33.5 15.5 33 15.6 32.5 15.7C32 15.9 31.6 16.2 31.4 16.6C31.1 17 31 17.5 31 18C31 18.7 31.3 19.3 31.8 19.8C32.3 20.3 32.9 20.6 33.6 20.6Z" fill="#ED1B34"/>
<path d="M17.0998 8.2998C17.1998 8.2998 17.2998 8.1998 17.1998 8.0998L16.9998 7.4998C16.9998 7.3998 16.8998 7.3998 16.8998 7.3998C16.7998 7.3998 16.7998 7.2998 16.6998 7.2998H5.99982C5.89982 7.2998 5.79982 7.3998 5.89982 7.4998L6.19982 8.0998C6.19982 8.1998 6.29982 8.1998 6.29982 8.1998C6.29982 8.1998 6.39982 8.2998 6.49982 8.2998H17.0998ZM17.9998 9.4998C17.9998 9.3998 17.8998 9.3998 17.7998 9.2998C17.6998 9.1998 17.6998 9.1998 17.5998 9.1998H6.99982C6.89982 9.2998 6.79982 9.2998 6.89982 9.4998L7.19982 10.0998C7.19982 10.1998 7.29982 10.1998 7.29982 10.1998C7.39982 10.1998 7.39982 10.2998 7.49982 10.2998H18.0998C18.1998 10.2998 18.2998 10.1998 18.1998 10.0998L17.9998 9.4998ZM18.9998 11.4998C18.9998 11.3998 18.8998 11.3998 18.8998 11.3998C18.7998 11.3998 18.7998 11.2998 18.6998 11.2998H7.99982C7.89982 11.2998 7.79982 11.3998 7.89982 11.4998L8.19982 12.0998C8.19982 12.1998 8.29982 12.1998 8.29982 12.1998C8.29982 12.1998 8.39982 12.2998 8.49982 12.2998H18.9998C19.0998 12.2998 19.1998 12.1998 19.0998 12.0998L18.9998 11.4998ZM19.9998 13.4998C19.9998 13.3998 19.8998 13.3998 19.8998 13.3998C19.7998 13.3998 19.7998 13.2998 19.6998 13.2998H8.99982C8.89982 13.2998 8.79982 13.3998 8.89982 13.4998L9.19982 14.0998C9.19982 14.1998 9.29982 14.1998 9.29982 14.1998C9.29982 14.1998 9.39982 14.2998 9.49982 14.2998H19.9998C20.0998 14.2998 20.1998 14.1998 20.0998 14.0998L19.9998 13.4998ZM20.9998 15.5998C20.9998 15.4998 20.8998 15.4998 20.8998 15.4998C20.7998 15.4998 20.7998 15.3998 20.6998 15.3998H9.99982C9.89982 15.3998 9.79982 15.4998 9.89982 15.5998L10.1998 16.1998C10.1998 16.2998 10.2998 16.2998 10.2998 16.2998C10.3998 16.2998 10.3998 16.3998 10.4998 16.3998H20.9998C21.0998 16.3998 21.1998 16.2998 21.0998 16.1998L20.9998 15.5998ZM21.9998 17.5998C21.9998 17.4998 21.8998 17.4998 21.8998 17.4998C21.7998 17.4998 21.7998 17.3998 21.6998 17.3998H10.9998C10.8998 17.3998 10.7998 17.4998 10.8998 17.5998L11.1998 18.1998C11.1998 18.2998 11.2998 18.2998 11.2998 18.2998C11.3998 18.2998 11.3998 18.3998 11.4998 18.3998H21.9998C22.0998 18.3998 22.1998 18.2998 22.0998 18.1998L21.9998 17.5998ZM22.9998 19.5998C22.9998 19.4998 22.8998 19.4998 22.8998 19.4998C22.7998 19.4998 22.7998 19.3998 22.6998 19.3998H11.8998C11.7998 19.3998 11.6998 19.4998 11.7998 19.5998L12.0998 20.1998C12.0998 20.2998 12.1998 20.2998 12.1998 20.2998C12.2998 20.2998 12.2998 20.3998 12.3998 20.3998H22.9998C23.0998 20.3998 23.1998 20.2998 23.0998 20.1998L22.9998 19.5998Z" fill="white"/>
<path d="M19.7996 6.3002C19.8996 6.3002 19.8996 6.3002 19.8996 6.2002C19.8996 6.2002 19.9996 6.1002 19.9996 6.0002V5.5002C19.9996 5.4002 19.9996 5.4002 19.8996 5.3002C19.8996 5.3002 19.7996 5.2002 19.6996 5.2002H3.39961C3.29961 5.2002 3.29961 5.2002 3.19961 5.3002C3.19961 5.3002 3.09961 5.4002 3.09961 5.5002V6.1002C3.09961 6.2002 3.09961 6.2002 3.19961 6.3002C3.19961 6.3002 3.29961 6.4002 3.39961 6.4002L19.7996 6.3002ZM12.7996 21.6002C12.6996 21.6002 12.5996 21.7002 12.6996 21.8002L19.3996 35.7002V35.8002H19.5996V35.7002L25.6996 22.9002C25.6996 22.8002 25.7996 22.8002 25.7996 22.8002C25.8996 22.8002 25.8996 22.7002 25.9996 22.7002H35.7996C35.8996 22.7002 35.8996 22.7002 35.9996 22.6002C35.9996 22.6002 36.0996 22.5002 36.0996 22.4002V21.8002C36.0996 21.7002 36.0996 21.7002 35.9996 21.6002C35.9996 21.6002 35.8996 21.5002 35.7996 21.5002H12.7996V21.6002ZM35.8996 5.2002H27.3996C27.2996 5.2002 27.2996 5.2002 27.1996 5.3002C27.1996 5.3002 27.0996 5.4002 27.0996 5.5002V6.1002C27.0996 6.2002 27.0996 6.2002 27.1996 6.3002C27.1996 6.3002 27.2996 6.4002 27.3996 6.4002H28.5996C28.8996 6.4002 30.6996 6.4002 29.9996 8.5002L24.3996 20.5002C24.3996 20.6002 24.3996 20.7002 24.4996 20.7002H26.3996C26.4996 20.7002 26.4996 20.7002 26.5996 20.6002C26.6996 20.6002 26.6996 20.5002 26.6996 20.5002L32.9996 7.7002C33.1996 7.2002 33.4996 6.8002 33.9996 6.5002C34.4996 6.3002 34.9996 6.2002 35.5996 6.2002H35.9996C36.0996 6.2002 36.0996 6.2002 36.1996 6.1002C36.1996 6.1002 36.2996 6.0002 36.2996 5.9002V5.4002C36.0996 5.3002 35.9996 5.2002 35.8996 5.2002Z" fill="white"/>
</svg>
