<svg width="40" height="41" viewBox="0 0 40 41" fill="none" xmlns="http://www.w3.org/2000/svg">
<path d="M30.5476 0.5L9 3.34381V9.78571L30.5476 7.84305V0.5Z" fill="#E4003A"/>
<path d="M22.3098 13.4766C18.7968 13.4766 15.9416 15.6404 15.2337 16.5362V13.9396H9V40.5004H15.1946V31.0532C15.9218 31.9685 18.7573 34.0934 22.2901 34.0934C28.1524 34.0934 31.381 30.9169 31.381 23.7698C31.381 16.6227 28.1568 13.4766 22.3098 13.4766ZM20.0906 28.9478C16.3997 28.9478 15.238 27.6084 15.238 23.7547C15.238 19.9009 16.391 18.5615 20.0906 18.5615C23.7903 18.5615 24.9216 19.8815 24.9216 23.7547C24.9216 27.6279 23.8076 28.9391 20.0906 28.9391V28.9478Z" fill="#00274F"/>
</svg>
