<svg width="40" height="41" viewBox="0 0 40 41" fill="none" xmlns="http://www.w3.org/2000/svg">
<path d="M19.7686 40.5C9.97093 40.5 2 32.5339 2 22.7411C2 17.1105 4.58268 11.9355 9.08419 8.54361L9.27317 8.40309V0.5H19.4682V4.97729C19.5651 4.97729 19.6669 4.97244 19.7638 4.97244C29.5615 4.97244 37.5276 12.9434 37.5276 22.7411C37.5324 32.5339 29.5615 40.5 19.7686 40.5Z" fill="#19502E"/>
<path d="M17.2783 5.83499L17.7677 5.35528V1.64844H18.325V7.13844L14.6278 10.7726V1.64844H15.185V7.88466L15.6744 7.40495V1.64844H16.2317V6.8574L16.7211 6.38254V1.64844H17.2783V5.83499ZM13.5666 7.88467L13.0772 7.40496V1.64845H12.5152V6.85742L12.0306 6.37771V1.64845H11.4685V5.83501L10.9791 5.3553V1.64845H10.4219V7.13846L14.1239 10.7726V1.64845H13.5666V7.88467ZM14.6278 13.8205L18.325 10.1814V7.85558L14.6278 11.4752V13.8205ZM14.6278 23.027L18.325 19.3928V16.9216L14.6278 20.5412V23.027ZM18.325 13.2293L14.6278 16.8635V14.5182L18.325 10.9034V13.2293ZM18.325 16.2772L14.6278 19.9113V17.5661L18.325 13.9513V16.2772ZM10.4219 19.3928L14.1239 23.027V20.5412L10.4219 16.9216V19.3928ZM10.4219 10.1863L14.1239 13.8205V11.4752L10.4219 7.85558V10.1863ZM14.1239 16.8635L10.4219 13.2293V10.9034L14.1239 14.5182V16.8635ZM10.4219 16.2772L14.1239 19.9113V17.5661L10.4219 13.9464V16.2772ZM23.8634 18.196H32.4691C32.7211 18.196 32.9343 18.4092 32.9294 18.6709V18.9616C32.9294 19.2232 32.7211 19.4365 32.4643 19.4365H31.1414V19.8435H31.8004V20.4152H31.1414V21.0064H31.8004V22.0967H31.1414V21.6024H30.1626V22.0967H29.5036V21.0064H30.1626V20.4152H29.5036V19.8435H30.1626V19.4365H23.4709C23.6599 19.732 23.7713 20.0809 23.7713 20.4589C23.7713 21.5297 22.8991 22.3971 21.8283 22.3971C20.7574 22.3971 19.8901 21.5297 19.8901 20.4589C19.8901 20.0373 20.0257 19.6497 20.2535 19.3347C20.0839 19.2232 19.9724 19.0343 19.9724 18.8162C19.9724 18.5982 20.0839 18.4092 20.2535 18.2977C20.0257 17.9779 19.8901 17.5951 19.8901 17.1736C19.8901 16.1027 20.7574 15.2354 21.8283 15.2354C22.8991 15.2354 23.7713 16.1027 23.7713 17.1736C23.7713 17.5515 23.6599 17.9004 23.4709 18.196H23.8634ZM21.8283 21.4522C22.3807 21.4522 22.8313 21.0064 22.8313 20.454C22.8313 20.047 22.3613 19.0779 22.3613 19.0779V18.5497C22.3613 18.5497 22.8313 17.5758 22.8313 17.1687C22.8313 16.6163 22.3807 16.1657 21.8283 16.1657C21.2807 16.1657 20.8301 16.6163 20.8301 17.1687C20.8301 17.3722 20.8882 17.5612 20.9948 17.7163L21.2759 18.1911C21.1014 18.3462 20.9948 18.5691 20.9948 18.8162C20.9948 19.0633 21.1014 19.2862 21.2759 19.4365L20.9948 19.9065C20.8882 20.0615 20.8301 20.2505 20.8301 20.454C20.8301 21.0064 21.2807 21.4522 21.8283 21.4522Z" fill="#FFCB05"/>
<path d="M19.7686 6.12109C19.5021 6.12109 19.2356 6.12594 18.974 6.14047V7.27433C19.2356 7.25979 19.5021 7.25495 19.7686 7.25495C28.321 7.25495 35.255 14.1889 35.255 22.7461C35.255 31.2937 28.321 38.2277 19.7686 38.2277C11.2114 38.2228 4.27745 31.2888 4.27745 22.7413C4.27745 17.9926 6.41434 13.7431 9.77715 10.9036V9.45967C5.7505 12.4929 3.14844 17.3094 3.14844 22.7413C3.14844 31.9139 10.5912 39.3518 19.7686 39.3518C28.9461 39.3518 36.3889 31.9139 36.3889 22.7413C36.384 13.5638 28.9461 6.12109 19.7686 6.12109ZM7.05881 19.4366V17.0187C7.05881 17.0187 7.4513 18.356 8.93404 19.8485C9.41277 20.3272 9.96448 20.8625 10.6541 21.5316L10.6543 21.5318L10.6549 21.5324L10.6558 21.5332V21.5333L10.6566 21.5341C11.0902 21.9547 11.5783 22.4283 12.1369 22.9738C12.1889 23.0247 12.2451 23.0777 12.3044 23.1337L12.3045 23.1338C12.952 23.7452 13.9685 24.7051 13.9685 26.8891V29.559C13.7263 28.9629 13.5421 28.6189 12.4713 27.5723C12.447 27.548 11.5743 26.6898 10.6654 25.7961C9.75716 24.903 8.81285 23.9744 8.64331 23.8073C8.06669 23.2307 7.05881 21.7479 7.05881 19.4366ZM10.6541 27.5013L10.6548 27.502C11.0888 27.9231 11.5775 28.3972 12.1369 28.9436C12.1874 28.9925 12.2419 29.0436 12.2992 29.0974L12.2993 29.0975C12.9465 29.7049 13.9689 30.6645 13.9734 32.8588V35.6886L13.9554 35.6444C13.7214 35.0677 13.5204 34.5723 12.4761 33.5517C12.4325 33.5032 8.9825 30.1307 8.64331 29.8012C8.1103 29.1955 7.05881 27.7225 7.05881 25.416V23.3276C7.05881 23.3276 7.4513 24.3306 8.93404 25.8182C9.41276 26.2969 9.96446 26.8322 10.6541 27.5013ZM32.2556 30.3294C32.0279 30.7025 31.7808 31.0611 31.524 31.4148V28.0956H32.2556V30.3294ZM33.656 27.2864C33.7626 26.9666 33.8547 26.6419 33.937 26.3124H31.524V26.9084H31.8922C32.5318 26.8939 33.249 26.8842 33.656 27.2864ZM16.9437 26.2349H17.5979V32.8539H16.9437V26.2349ZM15.4416 24.9557H17.5979C18.1551 24.9557 18.5427 25.072 18.7753 25.29C19.0031 25.5032 19.1048 25.8957 19.1048 26.453V32.6407C19.1048 33.2028 18.9982 33.5904 18.7753 33.8085C18.4313 34.1477 17.8014 34.1477 17.2781 34.1477C17.1618 34.138 17.0503 34.138 16.9486 34.138V37.0695C17.0053 37.0796 17.0617 37.09 17.118 37.1004C17.2782 37.13 17.4378 37.1595 17.6027 37.181V34.7728C18.596 34.7728 19.2502 34.4336 19.5555 33.7552V37.3409H19.7687C19.9043 37.3409 20.0449 37.3409 20.1805 37.336V26.5692C20.1805 25.9975 20.2968 25.6001 20.51 25.3724C20.7281 25.1447 21.1157 25.0332 21.6681 25.0332C21.7441 25.0332 21.8247 25.0317 21.9084 25.0301H21.9085C22.4443 25.0201 23.1061 25.0078 23.4707 25.3724C23.6887 25.6001 23.7905 26.0023 23.7905 26.5692V29.7431H22.3077V26.356H21.6681V37.2294C21.8813 37.2052 22.0945 37.1713 22.3077 37.1325V30.3778H23.7905V36.7837C24.0957 36.6964 24.3962 36.5995 24.6917 36.4929V30.6298C24.6917 29.966 24.8516 29.4669 25.5252 29.2391L24.779 25.164H26.2762L26.5282 29.6171H26.7123L26.9643 25.164H28.544L27.7008 29.2391C28.4083 29.4863 28.544 29.9224 28.544 30.6298V34.419C28.9801 34.0895 29.4016 33.7358 29.799 33.3579V25.1301H34.1842C34.2132 24.9363 34.2423 24.7328 34.2665 24.5341H24.0037L24.149 25.2706C23.8244 24.6746 23.209 24.3742 22.3077 24.3742H21.6681C20.5827 24.3742 19.9189 24.8055 19.6669 25.668C19.4343 24.7667 18.7463 24.3161 17.6027 24.3161H14.7923V36.4735C15.0055 36.5511 15.2235 36.6238 15.4416 36.6916V24.9557ZM29.0673 29.6365L28.3598 28.9629L29.0673 25.3094V29.6365ZM26.9497 35.4608C26.7269 35.5868 26.504 35.7031 26.2762 35.8194V30.4457H26.9497V35.4608Z" fill="white"/>
</svg>
