<svg width="40" height="40" viewBox="0 0 40 40" fill="none" xmlns="http://www.w3.org/2000/svg">
<path d="M40 0H0V40H40V0Z" fill="#E41A19"/>
<path d="M27.3998 5.79961C27.1998 6.09961 26.9998 6.29961 26.6998 6.49961C26.3998 6.29961 26.1998 6.09961 25.9998 5.79961C26.1998 5.49961 26.3998 5.29961 26.6998 5.09961C26.9998 5.29961 27.1998 5.49961 27.3998 5.79961ZM27.1998 7.49961V8.69961H26.3998V7.49961C25.9998 7.39961 25.4998 7.29961 25.4998 7.59961C25.4998 7.99961 25.6998 8.49961 25.8998 8.79961C25.7998 8.79961 25.6998 8.89961 25.5998 8.89961C25.4998 8.99961 25.2998 8.99961 25.1998 8.99961C24.7998 8.49961 24.5998 7.89961 24.4998 7.29961C24.4998 6.39961 25.9998 6.69961 26.4998 6.79961L26.8998 6.89961L27.2998 6.79961C27.7998 6.69961 29.1998 6.39961 29.1998 7.29961C29.0998 7.99961 28.8998 8.49961 28.4998 8.99961C28.3998 8.99961 28.2998 8.99961 28.1998 8.89961C27.9998 8.89961 27.8998 8.79961 27.6998 8.79961C27.8998 8.39961 28.0998 7.99961 28.0998 7.59961C28.0998 7.39961 27.5998 7.39961 27.1998 7.49961ZM28.3998 9.29961C27.8998 9.19961 27.3998 9.09961 26.8998 9.09961C26.3998 9.09961 25.8998 9.19961 25.3998 9.29961L25.5998 10.0996C25.9998 9.99961 26.3998 9.99961 26.8998 9.99961C27.2998 9.99961 27.7998 10.0996 28.1998 10.1996L28.3998 9.29961ZM22.0998 33.4996H19.3998V32.8996L18.9998 33.3996V32.6996C18.9998 32.5996 18.9998 32.3996 19.0998 32.2996L19.3998 31.9996H20.0998C20.4998 31.8996 20.8998 31.7996 21.1998 31.4996C21.4998 31.1996 21.6998 30.8996 21.7998 30.4996C21.1998 29.4996 20.7998 28.3996 20.6998 27.1996C20.6998 25.5996 21.6998 24.2996 24.0998 24.2996C24.9998 24.2996 25.7998 24.5996 26.5998 24.8996C26.5998 24.8996 23.4998 28.0996 23.4998 29.0996C23.6998 29.5996 23.8998 30.0996 23.9998 30.6996C23.4998 31.7996 22.7998 32.6996 22.0998 33.4996ZM34.8998 18.0996L34.6998 17.7996C34.9998 17.5996 35.2998 17.4996 35.5998 17.4996C35.8998 17.4996 36.1998 17.4996 36.4998 17.6996C35.6998 16.0996 33.7998 16.5996 33.6998 17.9996C33.3998 18.1996 33.0998 18.4996 32.9998 18.7996C32.7998 19.0996 32.6998 19.4996 32.7998 19.8996C32.7998 20.8996 33.4998 22.4996 33.9998 23.7996C34.3998 24.6996 34.6998 25.3996 34.6998 25.6996V26.0996C34.6998 26.1996 34.5998 26.2996 34.4998 26.3996C34.3998 26.4996 34.2998 26.5996 34.1998 26.5996C34.0998 26.5996 33.9998 26.6996 33.7998 26.6996C33.3998 26.6996 32.9998 26.3996 32.2998 25.4996C31.4998 24.3996 30.4998 23.3996 29.3998 22.6996L27.3998 21.2996L30.1998 19.1996L30.3998 20.1996C30.8998 19.4996 31.1998 18.7996 31.2998 17.9996C31.3998 17.1996 31.3998 16.3996 31.1998 15.5996C31.1998 15.4996 31.1998 15.3996 31.0998 15.2996C31.0998 15.1996 31.0998 15.1996 30.9998 15.0996L31.6998 15.3996V14.9996C31.1998 12.4996 29.3998 10.4996 26.7998 10.4996C26.0998 10.4996 25.3998 10.5996 24.6998 10.7996L24.7998 11.3996C24.4998 11.4996 22.8998 12.1996 22.8998 12.1996C22.8998 12.7996 23.0998 13.3996 23.4998 13.7996C23.9998 13.8996 24.4998 13.8996 24.8998 13.6996C24.9998 13.7996 24.9998 13.8996 24.9998 13.9996C24.9998 14.0996 24.9998 14.1996 24.8998 14.2996C24.7998 14.3996 24.7998 14.4996 24.6998 14.5996C24.5998 14.6996 24.4998 14.6996 24.3998 14.6996H23.6998C23.6998 14.7996 23.6998 14.9996 23.7998 15.0996L24.0998 15.3996H25.5998C25.7998 15.3996 25.9998 15.3996 26.0998 15.2996C26.2998 15.1996 26.3998 15.0996 26.4998 14.8996C26.5998 14.6996 26.6998 14.5996 26.6998 14.3996C26.6998 14.1996 26.6998 13.9996 26.5998 13.8996C26.5998 13.6996 26.4998 13.4996 26.3998 13.3996C26.5998 13.4996 26.6998 13.6996 26.8998 13.7996C26.9998 13.9996 27.0998 14.1996 27.0998 14.3996C27.1998 14.5996 27.1998 14.7996 27.1998 14.8996C27.1998 15.0996 27.0998 15.2996 26.9998 15.3996C26.8998 15.5996 26.7998 15.6996 26.5998 15.7996C26.6998 15.9996 26.4998 15.9996 26.2998 15.9996C25.7998 16.0996 25.5998 16.0996 25.3998 16.0996C25.0998 16.0996 24.8998 16.1996 24.2998 16.2996C23.6998 16.3996 23.1998 16.6996 22.7998 17.0996C22.3998 17.4996 22.0998 17.9996 21.8998 18.5996L20.3998 19.1996L19.6998 19.4996C18.9998 19.6996 18.2998 19.9996 17.6998 20.2996C17.2998 20.5996 16.9998 21.0996 16.8998 21.5996C16.7998 21.7996 16.7998 21.8996 16.7998 22.0996C16.7998 22.2996 16.7998 22.4996 16.8998 22.5996C17.2998 22.8996 17.7998 22.9996 18.1998 22.9996L17.6998 22.4996L18.3998 22.3996C18.6998 22.1996 18.7998 21.8996 18.8998 21.5996L19.8998 21.6996C20.5998 21.7996 21.2998 21.6996 21.9998 21.3996C22.2998 21.9996 22.7998 22.5996 23.3998 22.9996L23.9998 23.2996C25.4998 24.0996 28.6998 25.2996 28.6998 25.2996C28.6998 25.3996 28.6998 25.3996 28.5998 25.4996C27.6998 26.3996 27.0998 27.5996 27.0998 28.8996C27.0998 30.5996 29.7998 30.5996 29.7998 30.5996H30.4998C30.3998 31.2996 29.8998 32.1996 29.2998 32.1996H28.4998C28.3998 32.2996 28.2998 32.2996 28.1998 32.4996C28.0998 32.5996 28.0998 32.6996 28.0998 32.8996V33.5996L28.5998 33.0996V33.5996H31.2998L31.4998 33.1996C32.0998 32.1996 32.4998 31.1996 32.7998 29.9996C32.7998 29.4996 30.6998 28.9996 30.4998 28.9996C30.7998 27.9996 31.0998 26.8996 31.2998 25.7996C32.1998 27.0996 33.0998 27.5996 33.6998 27.5996C34.0998 27.5996 34.4998 27.3996 34.7998 27.1996C35.0998 26.8996 35.2998 26.4996 35.2998 26.0996C35.2998 25.4996 35.0998 24.9996 34.6998 23.9996C34.4998 23.4996 34.2998 22.9996 33.9998 22.2996L33.8998 22.0996C33.3998 20.6996 32.8998 19.5996 33.8998 18.8996V18.9996L34.4998 19.2996C34.6998 19.2996 34.8998 19.2996 35.1998 19.1996C35.3998 19.0996 35.5998 18.9996 35.6998 18.7996C35.7998 18.5996 35.8998 18.3996 35.8998 18.1996C35.6998 17.7996 35.2998 17.8996 34.8998 18.0996ZM25.2998 11.4996C25.6998 11.3996 26.1998 11.4996 26.5998 11.6996C25.6998 12.2996 25.1998 12.1996 25.2998 11.4996ZM20.8998 13.7996L21.2998 14.2996L22.8998 16.3996C22.1998 16.7996 21.2998 16.8996 20.4998 16.6996C19.2998 16.3996 18.9998 14.5996 18.9998 14.5996L18.8998 13.5996C18.5998 13.5996 18.2998 13.5996 17.9998 13.3996L17.7998 12.7996L17.4998 13.3996C17.3998 12.9996 17.3998 12.5996 17.4998 12.1996C17.5998 12.0996 17.7998 11.9996 17.8998 11.9996C18.0998 11.8996 18.1998 11.8996 18.3998 11.9996C18.8998 11.9996 19.2998 12.0996 19.6998 12.2996L20.8998 13.7996Z" fill="white"/>
</svg>
