<svg width="40" height="41" viewBox="0 0 40 41" fill="none" xmlns="http://www.w3.org/2000/svg">
<path d="M39.921 20.2V19.5C39.401 15.66 35.921 11.91 32.811 10.5C30.8855 9.52157 28.8045 8.88543 26.661 8.62C25.0835 8.4339 23.5449 8.002 22.101 7.34L21.741 7.1C21.621 7.02 21.501 6.98 21.381 6.9C20.676 6.37334 20.032 5.7696 19.461 5.1C19.1431 4.70757 18.8745 4.2777 18.661 3.82L18.501 3.5V20.36H20.301V8.36C20.606 8.64855 20.9413 8.90335 21.301 9.12C22.7641 9.76758 24.3137 10.1988 25.901 10.4C27.8016 10.6792 29.6638 11.1757 31.451 11.88C35.451 13.68 37.841 17.88 38.121 20.23V23.23H21.741V31.62C22.2634 31.622 22.7851 31.5819 23.301 31.5H23.461V24.88H40.001V23.16C40.001 22.28 40.001 21.16 39.921 20.16" fill="#CD1F45"/>
<path d="M18.4607 23.7595C16.8638 23.8208 15.2732 23.9946 13.7007 24.2795C12.7807 24.4395 11.8607 24.6795 10.9807 24.9195C10.5807 25.0395 10.1407 25.1995 9.74073 25.3595C9.58073 24.9195 9.46073 24.5195 9.34073 24.1195V23.9595C9.18847 23.327 9.07493 22.6859 9.00073 22.0395H18.4707L18.4607 23.7595ZM18.4607 32.4695H18.3407C18.0207 32.3895 17.6607 32.3495 17.3407 32.2295C16.562 32.0253 15.8102 31.7299 15.1007 31.3495C14.6245 31.1102 14.1724 30.8255 13.7507 30.4995C12.6938 29.77 11.7845 28.8471 11.0707 27.7795C10.9101 27.5622 10.7631 27.3351 10.6307 27.0995C10.7107 27.0995 10.7907 27.0995 10.8707 27.0195C10.9309 27.0098 10.9867 26.9819 11.0307 26.9395C11.8307 26.6995 12.7507 26.4195 13.7107 26.2195C15.269 25.9226 16.8462 25.7355 18.4307 25.6595V32.4995L18.4607 32.4695ZM11.0707 31.0295C10.4699 30.8102 9.88234 30.5564 9.31074 30.2695L9.07073 30.1495C8.59073 29.9095 8.07073 29.6695 7.63073 29.3895C7.63073 29.3895 7.51073 29.3895 7.47073 29.2695C7.43073 29.1495 7.55073 29.1495 7.63073 29.0695L7.75073 28.9095C8.03556 28.6309 8.34331 28.3766 8.67073 28.1495C8.67073 28.1495 8.75073 28.1495 8.79073 28.0695C8.80966 28.0613 8.83009 28.057 8.85074 28.057C8.87138 28.057 8.89181 28.0613 8.91073 28.0695C8.98632 28.1704 9.05323 28.2774 9.11073 28.3895C9.16824 28.5017 9.23515 28.6087 9.31074 28.7095C9.83112 29.4687 10.4202 30.1784 11.0707 30.8295C11.1406 30.9311 11.221 31.025 11.3107 31.1095C11.2309 31.1164 11.1506 31.1164 11.0707 31.1095V31.0295ZM6.23073 27.5995C6.1072 27.7802 5.97366 27.9538 5.83073 28.1195C5.55073 27.8795 5.27073 27.6395 5.03073 27.3995C3.43514 26.0225 2.37345 24.1291 2.03073 22.0495H7.00073C7.07389 23.0643 7.24808 24.0693 7.52073 25.0495C7.64116 25.461 7.80194 25.8596 8.00073 26.2395L7.80073 26.3595L7.60073 26.4795C7.10125 26.7972 6.64135 27.1732 6.23073 27.5995ZM2.43074 18.7695C2.69693 17.9787 3.0886 17.2359 3.59073 16.5695C4.03666 15.9695 4.5317 15.4076 5.07073 14.8895C5.1872 14.7931 5.29434 14.686 5.39073 14.5695C5.49382 14.4865 5.58769 14.3926 5.67073 14.2895C6.20957 14.9337 6.85994 15.4757 7.59073 15.8895H7.67073L7.95073 16.0495C7.83073 16.3695 7.67073 16.7695 7.55073 17.1695V17.3295C7.47074 17.6495 7.35073 17.9695 7.31073 18.2495C7.16664 18.8924 7.0631 19.5437 7.00073 20.1995H2.00074C2.07327 19.7089 2.19385 19.2266 2.36073 18.7595L2.43074 18.7695ZM7.28073 13.0495C7.36936 13.0104 7.45056 12.9563 7.52073 12.8895C8.04073 12.5695 8.52073 12.3295 9.08073 12.0495H9.20073C9.64312 11.8256 10.0971 11.6253 10.5607 11.4495L10.9607 11.2895H11.0807L10.8807 11.4895C10.2161 12.1423 9.62581 12.8667 9.12073 13.6495C9.04073 13.7695 8.96073 13.9295 8.88073 14.0495L8.64074 14.4095C8.25475 14.1504 7.9021 13.8448 7.59073 13.4995C7.45868 13.3776 7.33817 13.2437 7.23073 13.0995C7.27446 13.0789 7.3149 13.052 7.35073 13.0195L7.28073 13.0495ZM39.2007 26.2795H24.7007V27.9995H34.7007C34.3155 28.3664 33.9008 28.7008 33.4607 28.9995C29.534 31.4156 25.0007 32.6643 20.3907 32.5995V22.0395H37.0007V20.1995H9.00073C9.00073 19.6795 9.12073 19.1995 9.20073 18.7195C9.20073 18.5595 9.28073 18.3595 9.32073 18.1995C9.42442 17.7511 9.55806 17.3101 9.72074 16.8795L9.96073 16.9595C10.2866 17.0883 10.6206 17.1952 10.9607 17.2795C11.8489 17.5556 12.7588 17.7563 13.6807 17.8795H13.9207C14.6007 17.9995 15.4007 18.1195 16.2807 18.1995C16.9607 18.2795 17.6807 18.2795 18.4407 18.3195V16.3195C17.7723 16.3174 17.1046 16.2773 16.4407 16.1995C15.6807 16.1195 14.9207 16.0395 14.2007 15.9195C14.0246 15.9159 13.8498 15.889 13.6807 15.8395C12.7707 15.6846 11.8745 15.4572 11.0007 15.1595C10.8807 15.1595 10.7607 15.1595 10.6807 15.0795C10.6007 14.9995 10.6007 15.0795 10.5607 15.0795L11.0007 14.4995C11.0315 14.4278 11.0719 14.3605 11.1207 14.2995C11.8672 13.2591 12.7714 12.3414 13.8007 11.5795C15.14 10.6277 16.6792 9.99489 18.3007 9.72955H18.4607V7.72955H18.3007C18.2489 7.71125 18.1925 7.71125 18.1407 7.72955C16.6641 7.84811 15.1952 8.04842 13.7407 8.32955C12.8149 8.52625 11.9056 8.79369 11.0207 9.12954C10.4201 9.30236 9.83207 9.51621 9.26073 9.76955C8.68506 10.017 8.12413 10.2975 7.58073 10.6095C6.68642 11.115 5.82472 11.6761 5.00073 12.2895C3.85449 13.1783 2.84387 14.2293 2.00074 15.4095C1.4014 16.2415 0.929547 17.1583 0.600737 18.1295C0.272962 19.0965 0.0975339 20.1086 0.0807374 21.1295C0.000737391 24.3995 1.76073 27.4995 5.00073 29.9895C5.19405 30.1133 5.38096 30.2468 5.56073 30.3895C5.76073 30.5095 5.92073 30.6695 6.12073 30.7895C6.48073 30.9895 6.84073 31.2295 7.20073 31.4295C7.3286 31.5183 7.46223 31.5985 7.60073 31.6695C8.08073 31.9095 8.60074 32.1495 9.04073 32.3495L9.28073 32.4695C9.85384 32.7298 10.4415 32.9569 11.0407 33.1495C11.9207 33.4295 12.8407 33.7095 13.7607 33.9095C15.8835 34.3916 18.0539 34.6331 20.2307 34.6295C25.2897 34.7283 30.2662 33.3373 34.5407 30.6295C35.2747 30.1512 35.9701 29.6163 36.6207 29.0295C37.5368 28.1855 38.4048 27.2907 39.2207 26.3495L39.2007 26.2795Z" fill="#073D59"/>
</svg>
