<svg width="40" height="41" viewBox="0 0 40 41" fill="none" xmlns="http://www.w3.org/2000/svg">
<path d="M35.3514 8.27051C36.2889 9.49885 37.0826 10.8333 37.7163 12.2472L19.7395 25.6772L12.2266 20.9042V15.1622L19.7395 19.9351L35.3514 8.27051Z" fill="#21A038"/>
<path d="M4.55927 20.4991C4.55927 20.2414 4.56547 19.9855 4.57787 19.731L0.0247968 19.5049C0.00929965 19.8347 5.50217e-06 20.1677 5.50217e-06 20.5037C-0.0019317 23.1295 0.507688 25.7298 1.49964 28.1554C2.49159 30.5811 3.94634 32.7844 5.78045 34.6389L9.01005 31.3674C7.59823 29.9424 6.47822 28.2486 5.7144 26.3834C4.95058 24.5182 4.55802 22.5185 4.55927 20.4991Z" fill="url(#paint0_linear_63_1119)"/>
<path d="M19.7355 5.12042C19.9896 5.12042 20.2422 5.12985 20.4932 5.14241L20.7211 0.526502C20.3947 0.510796 20.0661 0.502945 19.7355 0.502945C17.1434 0.499741 14.5763 1.01547 12.1814 2.02053C9.78659 3.02559 7.61123 4.50017 5.78027 6.35962L9.00988 9.63268C10.4161 8.20139 12.0876 7.0659 13.9283 6.29152C15.769 5.51715 17.7425 5.11915 19.7355 5.12042Z" fill="url(#paint1_linear_63_1119)"/>
<path d="M19.7361 35.8798C19.482 35.8798 19.2294 35.8798 18.9768 35.8594L18.749 40.4737C19.0765 40.4904 19.4056 40.4989 19.7361 40.4989C22.3272 40.5016 24.8931 39.9855 27.2866 38.9802C29.6802 37.9748 31.8541 36.5 33.6837 34.6406L30.4603 31.3691C29.0538 32.7997 27.3825 33.9345 25.5422 34.7086C23.7019 35.4827 21.7287 35.8808 19.7361 35.8798Z" fill="url(#paint2_linear_63_1119)"/>
<path d="M28.2902 7.80319L32.1273 4.93689C28.6202 2.05876 24.2423 0.492011 19.7295 0.500031V5.11908C22.7854 5.11524 25.7703 6.05117 28.2902 7.80319Z" fill="url(#paint3_linear_63_1119)"/>
<path d="M39.4702 20.5001C39.4727 19.2985 39.369 18.0989 39.1602 16.916L34.9125 20.0886C34.9125 20.2253 34.9125 20.3619 34.9125 20.5001C34.9136 22.6491 34.4691 24.7743 33.6079 26.738C32.7466 28.7017 31.4878 30.4601 29.9131 31.8992L32.9769 35.331C35.0242 33.4579 36.6601 31.1698 37.7787 28.6149C38.8974 26.0599 39.4737 23.2952 39.4702 20.5001Z" fill="#21A038"/>
<path d="M19.7356 35.8802C17.6149 35.8809 15.5178 35.4303 13.5799 34.5575C11.6421 33.6847 9.90668 32.4091 8.48613 30.8135L5.10156 33.9169C6.94953 35.9921 9.20724 37.6503 11.7283 38.7843C14.2493 39.9181 16.9773 40.5024 19.7356 40.4991V35.8802Z" fill="url(#paint4_linear_63_1119)"/>
<path d="M9.55867 9.09967L6.49642 5.66797C4.44858 7.54068 2.81201 9.82871 1.69285 12.3837C0.573697 14.9386 -0.0030512 17.7034 1.21392e-05 20.4988H4.55928C4.55834 18.35 5.0029 16.2247 5.86412 14.261C6.72535 12.2973 7.98405 10.5389 9.55867 9.09967Z" fill="url(#paint5_linear_63_1119)"/>
<defs>
<linearGradient id="paint0_linear_63_1119" x1="6.70253" y1="34.0625" x2="1.60155" y2="19.5125" gradientUnits="userSpaceOnUse">
<stop offset="0.14" stop-color="#F1E813"/>
<stop offset="0.3" stop-color="#E6E418"/>
<stop offset="0.58" stop-color="#C9DA26"/>
<stop offset="0.89" stop-color="#A2CC39"/>
</linearGradient>
<linearGradient id="paint1_linear_63_1119" x1="7.08203" y1="7.17631" x2="19.9552" y2="2.33568" gradientUnits="userSpaceOnUse">
<stop offset="0.06" stop-color="#0FA7DF"/>
<stop offset="0.54" stop-color="#0098F8"/>
<stop offset="0.92" stop-color="#0290EA"/>
</linearGradient>
<linearGradient id="paint2_linear_63_1119" x1="18.4484" y1="37.7111" x2="32.9754" y2="34.4728" gradientUnits="userSpaceOnUse">
<stop offset="0.12" stop-color="#A2CC39"/>
<stop offset="0.28" stop-color="#86C239"/>
<stop offset="0.87" stop-color="#219F38"/>
</linearGradient>
<linearGradient id="paint3_linear_63_1119" x1="18.7811" y1="2.04704" x2="31.2135" y2="5.8327" gradientUnits="userSpaceOnUse">
<stop offset="0.06" stop-color="#0290EA"/>
<stop offset="0.79" stop-color="#0C89CA"/>
</linearGradient>
<linearGradient id="paint4_linear_63_1119" x1="6.24525" y1="33.3546" x2="19.7902" y2="38.3497" gradientUnits="userSpaceOnUse">
<stop offset="0.13" stop-color="#F1E813"/>
<stop offset="0.3" stop-color="#EAE616"/>
<stop offset="0.53" stop-color="#D8DF1F"/>
<stop offset="0.8" stop-color="#BAD52D"/>
<stop offset="0.98" stop-color="#A2CC39"/>
</linearGradient>
<linearGradient id="paint5_linear_63_1119" x1="1.6985" y1="21.058" x2="7.24536" y2="6.82019" gradientUnits="userSpaceOnUse">
<stop offset="0.07" stop-color="#A2CC39"/>
<stop offset="0.26" stop-color="#81C45E"/>
<stop offset="0.92" stop-color="#0FA7DF"/>
</linearGradient>
</defs>
</svg>
