<svg width="40" height="41" viewBox="0 0 40 41" fill="none" xmlns="http://www.w3.org/2000/svg">
<path d="M23.9852 0.925781V11.2965H19.965C14.8855 11.2965 10.7939 15.3879 10.7939 20.4672C10.7939 25.5448 14.8855 29.6362 19.9634 29.6362H23.9852V40.0069C33.1547 38.2431 39.9998 30.2017 39.9998 20.4655C39.9998 10.8017 33.1579 2.76025 23.9852 0.925781Z" fill="#003791"/>
<path d="M19.9651 32.8794C13.1217 32.8794 7.54645 27.3069 7.54645 20.4655C7.54645 13.624 13.12 8.04993 19.9619 8.04993H20.7394V0.5H19.9635C8.96049 0.5 0 9.4603 0 20.4638C0 31.5397 8.9605 40.5 19.9651 40.5H20.741V32.8827H19.9651V32.8794Z" fill="#FF4B5F"/>
</svg>
