<svg width="40" height="40" viewBox="0 0 40 40" fill="none" xmlns="http://www.w3.org/2000/svg">
<rect x="32.0312" y="14" width="7.96875" height="11.3281" fill="#F08064"/>
<rect width="32.0312" height="11.3281" transform="matrix(-1 0 0 1 32.0312 14)" fill="white"/>
<path fill-rule="evenodd" clip-rule="evenodd" d="M6.32034 15.8024C3.95599 15.9591 2.43966 16.9875 1.97636 18.7483C1.86857 19.1579 1.84074 20.0587 1.92212 20.5022C2.25751 22.3296 3.63529 23.4233 5.89801 23.6583C6.46959 23.7177 7.65194 23.6822 8.1682 23.5903C9.80621 23.2985 10.8383 22.4991 11.2578 21.1972C11.2983 21.0713 11.3163 20.9532 11.3163 20.9532L9.04519 20.5191C9.04519 20.5191 9.02295 20.583 8.99786 20.6677C8.82394 21.2548 8.38757 21.6527 7.72766 21.826C6.92782 22.036 5.72448 21.9284 5.09198 21.5904C4.81504 21.4424 4.51742 21.1366 4.38211 20.861C4.21719 20.5252 4.15551 20.2191 4.15537 19.7357C4.1552 19.0528 4.31602 18.5949 4.68727 18.2211C5.14657 17.7586 5.99138 17.5171 6.96695 17.5693C8.07911 17.6288 8.74583 18.0412 8.99543 18.824C9.0308 18.935 9.03003 18.9501 9.03003 18.9501C9.79902 18.8026 10.5682 18.6558 11.3342 18.4931C11.3342 18.4931 11.3482 18.4804 11.3196 18.3766C11.2484 18.118 11.0707 17.7422 10.8932 17.4749C10.2983 16.5789 9.22591 16.0203 7.77978 15.8533C7.43473 15.8134 6.59569 15.7842 6.32034 15.8024ZM11.9844 23.5857H14.2083V17.6976H18.6908V23.5857H20.9147V15.9207H11.9844V23.5857ZM21.8529 23.5885L25.0064 23.5769C28.1472 23.5654 28.161 23.565 28.4552 23.487C29.6559 23.1684 30.3201 22.2508 30.2501 21.0074C30.2256 20.5734 30.1694 20.3492 29.9968 19.9971C29.7309 19.4545 29.1775 19.0344 28.4725 18.8399C28.2029 18.7655 28.1313 18.7628 26.1009 18.751L24.006 18.7388V17.6627H29.6714V15.9207H21.8529V23.5885ZM32.0343 17.698L37.6809 17.6801L37.6994 15.9207H32.0343V17.698ZM32.0343 20.4459L33.7977 20.4567C35.5434 20.4673 35.5627 20.4682 35.7056 20.5448C35.9796 20.6917 36.0837 20.912 36.0569 21.2878C36.0364 21.5755 35.952 21.7263 35.7454 21.8449L35.596 21.9307L33.8151 21.9407L32.0343 21.9505V23.6594L34.0931 23.6465C36.0862 23.634 36.1614 23.6311 36.4473 23.5562C37.3502 23.3198 37.9935 22.7113 38.2025 21.8959C38.2801 21.5934 38.3045 21.1031 38.2571 20.7992C38.1033 19.8136 37.503 19.1566 36.4994 18.8754C36.2282 18.7994 36.1705 18.7972 34.1278 18.7858L32.0343 18.7741V20.4459ZM27.5941 20.4515C27.883 20.532 28.072 20.8077 28.0706 21.1468C28.0693 21.4888 27.9647 21.6833 27.7081 21.8212C27.5712 21.8948 27.5422 21.8959 25.7969 21.8959H24.006V20.4154H25.7354C26.8178 20.4155 27.5132 20.429 27.5941 20.4515Z" fill="black"/>
</svg>
