<svg width="40" height="41" viewBox="0 0 40 41" fill="none" xmlns="http://www.w3.org/2000/svg">
<path d="M25.7578 6.5C17.862 6.5 11.518 12.8874 11.518 20.6937C11.518 28.5645 17.9247 34.8875 25.7561 34.8875C33.5875 34.8875 40 28.5001 40 20.6937C40 12.8874 33.5892 6.5 25.7578 6.5ZM25.7578 25.9841C22.8454 25.9841 20.4515 23.5969 20.4515 20.6937C20.4515 17.7906 22.8454 15.4034 25.7578 15.4034C28.6701 15.4034 31.0648 17.7906 31.0648 20.6937C30.9996 23.5969 28.6701 25.9841 25.7578 25.9841ZM11.518 10.6239V31.2694H6.47268L0 10.6239H11.518Z" fill="#8B3FFD"/>
</svg>
