<svg width="40" height="41" viewBox="0 0 40 41" fill="none" xmlns="http://www.w3.org/2000/svg">
<path d="M20.8197 10.8258C20.8364 10.8091 20.8364 10.7924 20.8531 10.7757C21.1706 10.3246 21.0369 9.99039 20.8197 9.8066C20.686 9.68964 17.595 7.8183 17.595 7.8183C17.3778 7.66792 17.2274 7.41729 17.2274 7.11654C17.2274 6.66541 17.4947 6.31454 18.1297 6.13074C20.118 5.57936 27.1355 5.29532 29.5081 5.29532C30.3268 5.29532 31.7637 5.29532 33.0336 5.32874L32.9835 5.27861C29.4914 2.30451 24.9467 0.5 20.001 0.5C8.9567 0.5 0.000976562 9.45572 0.000976562 20.5C0.000976562 25.3622 1.73866 29.8066 4.61251 33.2652C7.11877 29.6562 13.3343 20.7506 14.6877 18.9294C16.2583 16.8241 19.8339 12.1625 20.4354 11.3772L20.4688 11.3438L20.8197 10.8258ZM7.80384 36.3563C11.179 38.9629 15.4062 40.5 20.001 40.5C31.0453 40.5 40.001 31.5443 40.001 20.5C40.001 17.1583 39.1823 14.0005 37.7287 11.2436C38.4137 10.5752 39.2157 9.52259 38.681 8.21934C38.514 7.83504 37.7454 6.93279 37.5449 6.71558L37.5783 6.79912C38.0628 8.26946 37.1105 9.18843 36.4087 9.80664C36.0244 10.1575 30.945 14.9361 24.9968 20.1492C19.7504 24.744 13.869 29.4056 10.4772 31.962C5.69858 35.5376 4.76291 36.0556 4.76291 36.0556C4.62924 36.1224 4.42874 36.1893 4.27836 36.1893C3.99432 36.1893 3.72698 36.0556 3.57661 35.8551C3.54319 35.9219 3.54319 35.9721 3.5599 36.0055C4.07786 36.8409 4.92999 37.7933 5.41453 37.7933C5.56491 37.7933 5.78212 37.7264 5.91579 37.6596C5.89908 37.6429 6.28337 37.4424 7.80384 36.3563Z" fill="#E2001A"/>
<path d="M20.853 10.7753C21.1538 10.3242 21.0368 9.98999 20.8196 9.8062C20.6859 9.68924 17.5949 7.81789 17.5949 7.81789C17.3777 7.66752 17.2273 7.41689 17.2273 7.11614C17.2273 6.6483 17.5113 6.31413 18.1295 6.13034C20.1178 5.57896 27.1354 5.29492 29.508 5.29492C30.6275 5.29492 32.8664 5.29492 34.32 5.37846C35.9574 5.47871 37.2106 5.82959 37.528 6.61488C38.1295 8.16877 37.127 9.13786 36.4086 9.78949C36.0243 10.1404 30.9616 14.9189 24.9967 20.132C19.7503 24.7268 13.8689 29.3885 10.4771 31.9448C5.69845 35.5205 4.76278 36.0384 4.76278 36.0384C4.62911 36.1052 4.42861 36.1721 4.26152 36.1721C3.76027 36.1721 3.37598 35.7878 3.37598 35.3032C3.37598 35.1194 3.4261 34.9357 3.52635 34.802C3.52635 34.802 12.9499 21.2347 14.6542 18.929C16.3752 16.6399 20.4854 11.2598 20.4854 11.2598C20.4854 11.2598 20.5523 11.2097 20.853 10.7753Z" fill="#FEFEFE"/>
</svg>
