<svg width="40" height="41" viewBox="0 0 40 41" fill="none" xmlns="http://www.w3.org/2000/svg">
<path fill-rule="evenodd" clip-rule="evenodd" d="M20.3107 0.5C20.8434 0.5 21.41 0.522065 22.0372 0.572499V4.4102C22.0372 21.3197 22.6819 28.6295 25.1815 39.9015C21.9876 40.7006 18.5999 40.7006 15.4115 39.8952C17.9277 28.5413 18.577 21.2315 18.577 4.4102V0.572499C19.2106 0.522065 19.7772 0.5 20.3107 0.5ZM39.6087 21.9313C39.6087 15.3544 36.0263 9.5718 30.6441 6.27783L30.7166 10.7428C33.916 13.493 35.9428 17.4931 35.9428 21.9313C35.9428 23.9581 35.5094 25.8919 34.749 27.6587C32.4329 25.4585 30.7828 22.8706 29.756 19.8146C28.5172 16.1156 28.228 12.0651 28.1839 7.1163L28.1894 4.98862L27.7355 4.79949L27.3194 4.63873C26.4778 4.32352 25.611 4.06347 24.7292 3.86646L24.7347 7.10999C24.8513 24.1976 27.8119 31.241 32.2162 36.535C36.7206 33.1355 39.6087 27.8588 39.6087 21.9313ZM15.8796 7.11315L15.8851 3.86962C14.6967 4.13597 13.536 4.51422 12.4249 4.99177L12.4304 7.11945C12.3807 12.0635 12.097 16.1187 10.8583 19.8178C9.83697 22.8737 8.18131 25.4569 5.8653 27.6618C5.10485 25.895 4.67143 23.9612 4.67143 21.9344C4.67143 17.4899 6.69273 13.4962 9.89764 10.746L9.97014 6.28099C4.58238 9.56865 1 15.3512 1 21.9344C1 27.862 3.89365 33.1386 8.39251 36.5382C12.8078 31.2505 15.7629 24.2008 15.8796 7.11315Z" fill="#3B175C"/>
</svg>
