<svg width="40" height="40" viewBox="0 0 40 40" fill="none" xmlns="http://www.w3.org/2000/svg">
<path fill-rule="evenodd" clip-rule="evenodd" d="M35.3436 11.5726L15.1683 16.9997C14.4473 17.1628 13.7586 17.5992 13.2525 18.2608C12.746 18.9214 12.5027 19.7018 12.5027 20.4754V25.4041L7.14562 26.8231C6.83482 26.9063 6.54949 27.0889 6.33805 27.3648C6.1266 27.6383 6.02725 27.9618 6.02725 28.2828V33.5265L11.3843 32.0829C11.4641 32.0617 11.5423 32.0336 11.6178 31.9997C11.8365 31.9003 12.0344 31.7466 12.1915 31.5437C12.4029 31.2711 12.5023 30.9467 12.5023 30.6257L12.5027 25.4041L18.9875 23.6649V31.3832L13.6495 32.8047C13.3323 32.8913 13.0411 33.0773 12.8262 33.3567C12.6114 33.636 12.5091 33.9664 12.5091 34.2976V39.7722L17.847 38.338C17.9222 38.3167 17.996 38.2913 18.0678 38.259C18.1064 38.242 18.1447 38.2233 18.182 38.2029C18.3671 38.1036 18.534 37.9643 18.6703 37.786C18.8851 37.5066 18.9875 37.1754 18.9875 36.8485V31.3832L25.4531 29.6406V37.3079L35.3661 34.644C37.0351 34.1974 38.4002 32.4328 38.4002 30.7607V13.7609C38.4032 12.0897 37.0385 11.0877 35.3436 11.5726ZM5.20396 39.1303L2 39.9998V36.8196C2 36.6778 2.0276 36.5318 2.08322 36.395C2.12058 36.3025 2.17069 36.2142 2.23395 36.1326C2.39105 35.9237 2.60547 35.7862 2.83602 35.725L6.03998 34.8521V38.0323C6.03998 38.2734 5.96313 38.5171 5.80646 38.7226C5.64936 38.9282 5.43452 39.0657 5.20396 39.1303Z" fill="#006A40"/>
<path fill-rule="evenodd" clip-rule="evenodd" d="M15.1297 3.90269L29.3649 0.0932627C30.7775 -0.291417 31.9341 0.549274 31.9375 1.96401V16.3483C31.9375 17.7605 30.7809 19.2364 29.3679 19.6185L25.4591 20.6673V14.2271L18.9871 15.9662V9.45465L12.5184 11.1844V7.40387C12.5184 6.62687 12.7617 5.84732 13.2682 5.18666C13.7553 4.54807 14.4151 4.12093 15.1297 3.90949V3.90269ZM7.03015 18.1452L11.3716 16.964C11.6854 16.8773 11.9737 16.6948 12.1885 16.4154C12.2823 16.2931 12.3541 16.1623 12.4051 16.0265C12.4709 15.8507 12.5023 15.6673 12.5023 15.4847V11.1844L8.16126 12.3555C8.03304 12.3911 7.90906 12.4421 7.79272 12.51C7.62416 12.6085 7.4713 12.741 7.34435 12.9074C7.13248 13.1868 7.03015 13.5146 7.03015 13.8415V18.1452ZM2.00342 24.5828L5.20738 23.7133C5.43794 23.6487 5.65278 23.5112 5.80988 23.3057C5.89904 23.1893 5.96231 23.0602 6.00009 22.9261C6.02897 22.8242 6.0434 22.7197 6.0434 22.6153V19.4351L2.83944 20.308C2.60888 20.3692 2.39447 20.5068 2.23737 20.7157C2.08027 20.9178 2.00342 21.1615 2.00342 21.4026V24.5828Z" fill="#50AC25"/>
</svg>
