<svg width="40" height="40" viewBox="0 0 40 40" fill="none" xmlns="http://www.w3.org/2000/svg">
<path d="M0.000976562 19.2C0.000976562 10.149 0.000976562 5.6235 2.81298 2.812C5.62448 0 10.15 0 19.201 0H20.801C29.852 0 34.3775 0 37.189 2.812C40.001 5.6235 40.001 10.149 40.001 19.2V20.8C40.001 29.851 40.001 34.3765 37.189 37.188C34.3775 40 29.852 40 20.801 40H19.201C10.15 40 5.62448 40 2.81298 37.188C0.000976562 34.3765 0.000976562 29.851 0.000976562 20.8V19.2Z" fill="#0077FF"/>
<path d="M21.2845 28.817C12.1675 28.817 6.96798 22.567 6.75098 12.167H11.3175C11.4675 19.8005 14.8345 23.0345 17.501 23.7005V12.1675H21.801V18.7505C24.4345 18.467 27.201 15.467 28.134 12.1675H32.434C31.7175 16.234 28.7175 19.234 26.584 20.4675C28.7175 21.4675 32.134 24.084 33.434 28.8175H28.701C27.6845 25.6505 25.151 23.2005 21.801 22.8675V28.8175H21.2845V28.817Z" fill="white"/>
</svg>
