<svg width="40" height="40" viewBox="0 0 40 40" fill="none" xmlns="http://www.w3.org/2000/svg">
<path d="M19.9045 1C23.0257 1 25.9941 1.6935 28.6591 2.93405C29.077 3.1169 29.4973 3.33574 29.9141 3.55479L28.0872 5.12445L25.3481 2.3872L20.6293 6.40138L17.8496 3.51784L9.17263 10.9997L14.7284 16.8755L12.5589 18.6999L18.0407 24.5757L15.8711 26.3993L23.7123 34.7569L28.3523 30.6693L32.3893 35.0499C31.5893 35.6339 30.7141 36.219 29.7636 36.7291C26.8705 38.2982 23.5201 39.2088 19.9439 39.2088C8.94338 39.2088 0.000121977 30.6342 0.000121977 20.0881C-0.0380869 9.6131 8.90517 1 19.9045 1ZM16.2508 18.9193L21.0078 14.8316L25.2717 19.3934L20.5135 23.4806L16.2508 18.9193ZM19.6383 26.8025L24.3583 22.6786L28.6591 27.24L23.9009 31.3279L19.6383 26.8025ZM12.8658 11.1462L17.6216 7.0585L21.8842 11.6203L17.126 15.7078L12.8658 11.1462ZM21.5798 8.95577L25.1189 5.89034L28.3165 9.28454L24.7774 12.3862L21.5798 8.95577ZM27.8974 23.0064L31.4364 19.9408L34.634 23.3704L31.0938 26.438L27.8974 23.0064ZM31.0185 29.9047L34.5588 26.8385L37.754 30.2325L34.2149 33.3338L31.0185 29.9047ZM32.4645 14.1381L34.8239 12.0942L36.9552 14.3577L34.5958 16.4009L32.4645 14.1381ZM29.4197 7.38649L31.7791 5.30672L33.9117 7.60552L31.5511 9.64928L29.4197 7.38649ZM35.4711 20.8903L37.8305 18.8465L40 21.1093L37.6036 23.1525L35.4711 20.8903ZM24.8526 15.8173L28.3929 12.7517L31.5893 16.1451L28.0502 19.2113L24.8526 15.8173Z" fill="#006CB4"/>
</svg>
